# xmcd
#
# Track frame offsets: 
#        150
#        21704
#        40981
#        60108
#        79873
#        97547
#        114029
#        133076
#        151223
#        179585
#        196037
#        220484
#        232561
#        244666
#        262856
#
# Disc length: 3776 seconds
#
# Revision: 0
# Processed by: cddbd v1.5.1PL0 Copyright (c) Steve Scherf et al.
# Submitted via: ExactAudioCopy v0.95a5
#
DISCID=b20ebe0f
DTITLE=Various Artist - Å·ÃÀ½ð³ªÆ¬
DYEAR=2002
DGENRE=Pop
TTITLE0=My Heart Will Go On
TTITLE1=Candle In The Wind
TTITLE2=Every Thing I Do(I Do It For You)
TTITLE3=Hero
TTITLE4=When A Man Love A Woman
TTITLE5=Unchained Melody
TTITLE6=Take My Breath Away
TTITLE7=Say You Say Me
TTITLE8=I Just Call To Say I Love You
TTITLE9=Never Gonna Give You Up 
TTITLE10=Another Day In Paradise
TTITLE11=Only You
TTITLE12=Sealed With Kiss
TTITLE13=Can You Feel The Love Tonight
TTITLE14=I Will Always Love You
EXTD=
EXTT0=
EXTT1=
EXTT2=
EXTT3=
EXTT4=
EXTT5=
EXTT6=
EXTT7=
EXTT8=
EXTT9=
EXTT10=
EXTT11=
EXTT12=
EXTT13=
EXTT14=
PLAYORDER=
